
<svg width="32px" height="32px" viewBox="0 0 32 32" version="1.1" xmlns="http://www.w3.org/2000/svg" xmlns:xlink="http://www.w3.org/1999/xlink">
    <!-- Generator: Sketch 44 (41411) - http://www.bohemiancoding.com/sketch -->
    <desc>Created with Sketch.</desc>
    <defs>
        <path d="M16,32 C24.836556,32 32,24.836556 32,16 C32,7.163444 24.836556,0 16,0 C7.163444,0 0,7.163444 0,16 C0,24.836556 7.163444,32 16,32 Z" id="path-1"></path>
        <path d="M12.1181961,0.831245606 L15.869751,0.477661133 L15.869751,1.51147461 L18.0646039,1.95909432 L22.5238908,2.8546641 C23.9250535,3.13606313 24.9331881,4.36679383 24.9331881,5.79593429 L24.9331881,5.79593429 L24.9331881,11.0520784 C24.9331881,11.7756158 24.3818579,12.3799587 23.661359,12.446199 L23.661359,12.446199 L12.848947,13.4402574 L12.8476478,13.4166223 L12.848947,13.4703585 L2.03309255,12.449042 L2.03309255,12.449042 C1.3140789,12.3811472 0.764705882,11.7774543 0.764705882,11.0552422 L0.764705882,5.7987996 L0.764705882,5.7987996 C0.764705882,4.36837052 1.77461732,3.1369065 3.17736437,2.85685637 L7.95782471,1.90246582 L9.83782959,1.51715088 L9.83782959,0.569152832 L12.1181961,0.831245606 Z M12.6357126,4.6506444 L12.6548013,5.44018597 L12.6555164,5.46976222 L13.2813029,4.6506444 L12.6357126,4.6506444 Z" id="path-3"></path>
        <linearGradient x1="50%" y1="47.8568629%" x2="50%" y2="100%" id="linearGradient-5">
            <stop stop-color="#D1A57E" offset="0%"></stop>
            <stop stop-color="#E9CAB5" offset="100%"></stop>
        </linearGradient>
        <radialGradient cx="50%" cy="28.3561881%" fx="50%" fy="28.3561881%" r="116.212336%" gradientTransform="translate(0.500000,0.283562),scale(0.610501,1.000000),rotate(142.556702),translate(-0.500000,-0.283562)" id="radialGradient-6">
            <stop stop-color="#003257" offset="0%"></stop>
            <stop stop-color="#001423" offset="100%"></stop>
        </radialGradient>
        <path d="M3.34747314,3.5 C4.52862549,3.5 5.34747314,2.67846709 5.34747314,1.52743545 C5.34747314,0.376403809 4.45204264,0 3.34747314,0 C2.24290364,0 1.34747314,0.377259651 1.34747314,1.52743545 C1.34747314,2.67761125 2.1663208,3.5 3.34747314,3.5 Z" id="path-7"></path>
        <path d="M8.68322754,3.5 C9.86437988,3.5 10.6832275,2.67846709 10.6832275,1.52743545 C10.6832275,0.376403809 9.78779704,0 8.68322754,0 C7.57865804,0 6.68322754,0.377259651 6.68322754,1.52743545 C6.68322754,2.67761125 7.5020752,3.5 8.68322754,3.5 Z" id="path-8"></path>
    </defs>
    <g id="云主机" stroke="none" stroke-width="1" fill="none" fill-rule="evenodd">
        <g id="*按钮" transform="translate(-1819.000000, -133.000000)">
            <g id="Group-16" transform="translate(1819.000000, 133.000000)">
                <rect id="Rectangle-4" x="0" y="0" width="32" height="32"></rect>
                <g id="Path-20">
                    <mask id="mask-2" fill="white">
                        <use xlink:href="#path-1"></use>
                    </mask>
                    <use id="Mask" fill="#F2FAFF" xlink:href="#path-1"></use>
                    <g mask="url(#mask-2)">
                        <g transform="translate(3.000000, 20.000000)">
                            <mask id="mask-4" fill="white">
                                <use xlink:href="#path-3"></use>
                            </mask>
                            <use id="Mask" stroke="none" fill="#004273" fill-rule="evenodd" xlink:href="#path-3"></use>
                            <path d="M9.82788671,1.52514962 L7.99975586,1.88037109 C8.7504069,3.97135617 10.3691813,5.01120214 12.8560791,4.999909 C15.3429769,4.98861587 17.0605062,3.97141832 18.008667,1.94831636 L15.8700073,1.51867716 L15.8700073,-5.39712418 L9.82788671,-5.39712418 L9.82788671,1.52514962 Z" id="Combined-Shape" stroke="none" fill="url(#linearGradient-5)" fill-rule="evenodd" mask="url(#mask-4)"></path>
                            <path d="M7.99975586,1.88037109 C8.7504069,3.97135617 10.3691813,5.01120214 12.8560791,4.999909 C15.3429769,4.98861587 17.0605062,3.97141832 18.008667,1.94831636" id="Path-20" stroke="#FFFFFF" stroke-width="0.8" fill="none" stroke-linecap="round" stroke-linejoin="round" mask="url(#mask-4)"></path>
                        </g>
                    </g>
                </g>
                <path d="M16,31.5 C24.5604136,31.5 31.5,24.5604136 31.5,16 C31.5,7.43958638 24.5604136,0.5 16,0.5 C7.43958638,0.5 0.5,7.43958638 0.5,16 C0.5,24.5604136 7.43958638,31.5 16,31.5 Z" id="Mask" stroke="#004273"></path>
                <path d="M10.5750732,13.2049561 C9.27624512,13.0878499 8.62683105,13.582194 8.62683105,14.6879883 C8.62683105,16.3466797 9.71582031,16.5966797 10.5750732,16.8312988 C11.1479085,16.9877116 11.1479085,15.7789307 10.5750732,13.2049561 Z" id="Path-19" fill="#E5C9B2"></path>
                <path d="M23.041626,13.1711738 C21.7063395,13.1711738 21.0386963,13.6269739 21.0386963,14.5385742 C21.0386963,15.9059747 22.0758057,16.7935791 23.041626,16.7935791 C23.6855062,16.7935791 23.6855062,15.5861107 23.041626,13.1711738 Z" id="Path-19-Copy" fill="#E5C9B2" transform="translate(22.281616, 14.982376) scale(-1, 1) translate(-22.281616, -14.982376) "></path>
                <path d="M12.802,8 C11.247,8 10,9.251 10,10.794 L10,16.478 C10,19.5493164 13.4521641,21.518 16.042,21.518 C18.6318359,21.518 22.084,19.4638672 22.084,15.478 L22.084,10.794 C22.084,9.258 20.829,8 19.281,8 L12.802,8 Z" id="Fill-4" fill="#FFE6CF"></path>
                <path d="M16.0517243,6.04370117 C11.0215028,6.04370117 9.39794922,9.12646484 9.74707031,11.3342412 L9.9998,13.7972412 C9.9998,13.1363903 10.5941079,13.1135407 10.9780273,12.425415 C11.4905093,11.5068579 11.1070557,10.1726685 11.8028,10.0032412 C12.4985443,9.83381396 14.9188564,10.8752441 16.0418,10.8752441 C17.0781897,10.8752441 19.408768,9.67200977 20.2808,10.0032412 C21.152832,10.3344727 20.6388101,11.5411468 21.152832,12.425415 C21.5629318,13.1309067 22.0838,13.1151629 22.0838,13.7972412 L22.4019775,11.3342412 C22.4019775,9.00366211 21.0819458,6.04370117 16.0517243,6.04370117 Z" id="Fill-1" fill="url(#radialGradient-6)"></path>
                <g id="Group-11" transform="translate(10.000000, 13.000000)">
                    <g id="Oval-24">
                        <use fill-opacity="0.099779212" fill="#002038" fill-rule="evenodd" xlink:href="#path-7"></use>
                        <path stroke="#002C4D" stroke-width="0.4" d="M3.34747314,3.3 C4.41358024,3.3 5.14747314,2.57255086 5.14747314,1.52743545 C5.14747314,0.614980355 4.51635538,0.2 3.34747314,0.2 C2.17912,0.2 1.54747314,0.615514956 1.54747314,1.52743545 C1.54747314,2.57201247 2.28168432,3.3 3.34747314,3.3 Z"></path>
                    </g>
                    <g id="Oval-24-Copy">
                        <use fill-opacity="0.099779212" fill="#002038" fill-rule="evenodd" xlink:href="#path-8"></use>
                        <path stroke="#002C4D" stroke-width="0.4" d="M8.68322754,3.3 C9.74933463,3.3 10.4832275,2.57255086 10.4832275,1.52743545 C10.4832275,0.614980355 9.85210978,0.2 8.68322754,0.2 C7.5148744,0.2 6.88322754,0.615514956 6.88322754,1.52743545 C6.88322754,2.57201247 7.61743871,3.3 8.68322754,3.3 Z"></path>
                    </g>
                    <path d="M5.22008055,1.45182292 C5.48674723,1.15060764 5.7534139,1 6.02008057,1 C6.28674724,1 6.55341391,1.15060764 6.82008058,1.45182292" id="Path-18" stroke="#002C4D" stroke-width="0.4" stroke-linecap="round" stroke-linejoin="round"></path>
                    <path d="M10.5723877,1.11912028 L11.9815674,1" id="Path-18-Copy" stroke="#002C4D" stroke-width="0.4" stroke-linecap="round" stroke-linejoin="round"></path>
                    <path d="M0.0997924805,1.11912028 L1.50897217,1" id="Path-18-Copy" stroke="#002C4D" stroke-width="0.4" stroke-linecap="round" stroke-linejoin="round" transform="translate(0.804382, 1.059560) scale(-1, 1) translate(-0.804382, -1.059560) "></path>
                </g>
                <polygon id="Path-21" fill="#FFFFFF" points="14.4172974 24.621582 15.7409973 26.7956543 17.0646973 24.5429077 15.8898926 24.621582"></polygon>
            </g>
        </g>
    </g>
</svg>